<?xml version="1.0" standalone="no"?>
<!DOCTYPE svg PUBLIC "-//W3C//DTD SVG 20010904//EN"
 "http://www.w3.org/TR/2001/REC-SVG-20010904/DTD/svg10.dtd">
<svg version="1.0" xmlns="http://www.w3.org/2000/svg"
 width="260.000000pt" height="260.000000pt" viewBox="0 0 260.000000 260.000000"
 preserveAspectRatio="xMidYMid meet">
<metadata>
Created by potrace 1.14, written by Peter Selinger 2001-2017
</metadata>
<g transform="translate(0.000000,260.000000) scale(0.100000,-0.100000)"
fill="#000000" stroke="none">
<path d="M585 2358 c-3 -7 -110 -479 -240 -1048 -129 -569 -237 -1045 -240
-1058 l-6 -23 158 3 157 3 45 228 45 227 213 0 c117 0 213 -1 213 -3 0 -2 20
-104 45 -227 25 -123 45 -225 45 -227 0 -2 142 -3 315 -3 l315 0 0 325 0 324
76 138 c41 76 79 142 83 146 4 4 86 -200 181 -455 95 -255 176 -466 180 -471
4 -4 79 -6 167 -5 l161 3 -244 620 c-134 341 -247 630 -250 642 -4 15 56 146
205 447 l210 427 -157 -3 -156 -3 -225 -483 -226 -482 -3 485 -2 485 -160 0
-160 0 -2 -1051 -3 -1051 -234 1029 c-129 565 -236 1038 -239 1051 -4 21 -8
22 -133 22 -95 0 -131 -3 -134 -12z m210 -994 c41 -209 75 -380 75 -381 0 -2
-70 -3 -156 -3 l-156 0 5 23 c3 12 33 162 67 332 83 425 81 417 86 412 3 -3
38 -175 79 -383z"/>
</g>
</svg>
